<svg version="1.1" id="Layer_1" xmlns="http://www.w3.org/2000/svg" xmlns:xlink="http://www.w3.org/1999/xlink" x="0px" y="0px"
	 width="100%" viewBox="0 0 808 642" enable-background="new 0 0 808 642" xml:space="preserve">
<path fill="#252E41" opacity="1.000000" stroke="none" 
	d="
M808.000000,643.000000 
	C539.049622,643.000000 270.099213,643.000000 1.074412,643.000000 
	C1.074412,429.089111 1.074412,215.178162 1.074412,1.000000 
	C269.694641,1.000000 538.389404,1.000000 807.541870,1.459705 
	C807.999695,215.612946 807.999878,429.306458 808.000000,643.000000 
M366.500000,130.171585 
	C343.506378,130.174011 320.511353,130.309799 297.520233,130.070709 
	C292.696381,130.020554 291.339050,131.387711 291.366455,136.214996 
	C291.563293,170.872574 291.471130,205.531769 291.474731,240.190460 
	C291.474854,241.356293 291.180420,242.681671 291.635315,243.643112 
	C292.091034,244.606293 293.369202,245.871307 294.188599,245.804169 
	C295.325256,245.711044 296.874176,244.722351 297.326416,243.707169 
	C297.888184,242.446030 297.534882,240.766403 297.535095,239.267532 
	C297.539917,207.108261 297.633362,174.948441 297.439545,142.790329 
	C297.409668,137.834824 298.726562,136.202667 303.874390,136.214386 
	C373.024750,136.371689 442.175690,136.363342 511.326141,136.226746 
	C516.195068,136.217117 517.523071,137.788589 517.514343,142.521103 
	C517.387634,211.504974 517.377380,280.489258 517.528137,349.473022 
	C517.539307,354.595978 515.929993,355.955688 510.943695,355.924988 
	C478.619049,355.725891 446.292572,355.822418 413.966675,355.828217 
	C412.467865,355.828491 410.776062,355.472656 409.531097,356.051025 
	C408.529236,356.516479 407.595551,358.116669 407.525848,359.267548 
	C407.475952,360.091064 408.756683,361.455505 409.710083,361.769379 
	C411.069489,362.216797 412.672791,361.942993 414.171906,361.943146 
	C448.330719,361.947052 482.489502,361.948273 516.648315,361.944885 
	C523.486145,361.944214 523.497192,361.934631 523.497437,355.192505 
	C523.500183,282.375977 523.500183,209.559464 523.497681,136.742950 
	C523.497498,130.190704 523.487000,130.175125 516.965576,130.174545 
	C467.143707,130.170059 417.321869,130.172134 366.500000,130.171585 
M375.362946,191.969315 
	C374.664215,193.544434 373.362610,195.117081 373.356110,196.695068 
	C373.234558,226.154617 373.262085,255.614807 373.281433,285.074860 
	C373.282379,286.506287 373.494476,287.937622 373.606720,289.349670 
	C378.114105,289.349670 382.168945,289.349670 386.719788,289.349670 
	C386.719788,279.209473 386.719788,269.453156 386.719788,259.139099 
	C389.156921,259.139099 391.107269,259.158295 393.057190,259.135803 
	C402.039520,259.032104 411.052032,259.342896 419.996918,258.706543 
	C433.709412,257.731049 443.187195,248.848801 445.251404,235.267456 
	C446.019043,230.216797 446.037781,224.967621 445.717102,219.851669 
	C444.629791,202.506042 433.468811,192.046768 416.181366,191.941620 
	C402.866608,191.860641 389.550934,191.927032 375.362946,191.969315 
M226.809525,455.312561 
	C226.809525,457.896606 226.809525,460.480652 226.809525,462.940582 
	C234.998596,463.992340 234.999496,463.992340 235.003845,456.867737 
	C235.006042,453.270569 235.004242,449.673370 235.004242,445.517181 
	C241.355316,445.517181 246.994461,445.652985 252.624710,445.487274 
	C262.559967,445.194855 268.929779,439.336823 269.746460,429.491760 
	C270.045502,425.886383 269.823608,422.134460 269.161652,418.575439 
	C267.994263,412.299042 264.114594,407.277954 257.824310,406.753845 
	C247.676590,405.908325 237.406906,406.526611 226.809677,406.526611 
	C226.809677,422.411743 226.809677,438.386627 226.809525,455.312561 
M422.603516,455.970947 
	C414.490570,455.570679 412.925507,453.740631 414.542908,445.791626 
	C424.138824,445.791626 433.873871,445.791626 443.784973,445.791626 
	C443.784973,440.885498 444.119354,436.553162 443.702240,432.294464 
	C443.153107,426.688171 440.119385,423.219818 434.481903,422.766876 
	C427.576874,422.212067 420.560913,422.354614 413.643829,422.873871 
	C409.059845,423.217926 405.877136,426.318726 405.710541,431.116211 
	C405.445282,438.753510 405.469360,446.417145 405.790039,454.052032 
	C405.965729,458.235596 408.538361,461.912720 412.653168,462.213287 
	C420.677002,462.799377 428.878998,463.076324 436.813934,462.023956 
	C442.403961,461.282562 444.476776,456.040375 443.272827,449.960297 
	C439.685730,449.579102 436.034210,448.657959 434.811981,453.928253 
	C434.610535,454.796783 432.406433,455.542999 431.044708,455.725494 
	C428.586121,456.054993 426.064789,455.916138 422.603516,455.970947 
M326.500275,354.134644 
	C321.672394,354.134369 316.844482,354.143921 312.016632,354.131683 
	C302.773468,354.108276 299.894745,351.232788 299.878082,341.810974 
	C299.843323,322.166718 299.776733,302.521698 299.929291,282.878601 
	C299.965607,278.204193 297.641144,275.742828 293.365326,273.434174 
	C293.253876,275.683258 293.106171,277.289429 293.105011,278.895752 
	C293.089874,300.038361 293.075378,321.181000 293.103210,342.323578 
	C293.120544,355.498260 298.482330,360.939819 311.548676,360.967163 
	C333.024170,361.012146 354.499817,360.987946 375.975372,360.962738 
	C377.371277,360.961090 378.766876,360.702728 380.699890,360.510315 
	C378.173065,356.365936 375.666077,353.996429 370.949524,354.067535 
	C356.469360,354.285889 341.983704,354.139648 326.500275,354.134644 
M321.169006,423.624481 
	C317.474365,425.221588 316.106262,428.365692 316.028290,432.047943 
	C315.884186,438.855743 315.731567,445.681824 316.068268,452.476196 
	C316.407318,459.318176 319.877625,462.822906 326.755005,463.269714 
	C332.544922,463.645874 338.400024,463.641724 344.188507,463.249084 
	C350.528748,462.819061 354.105988,459.714691 354.493561,453.769867 
	C354.989197,446.167206 354.833862,438.499207 354.534485,430.876007 
	C354.347076,426.104980 351.246277,422.909973 346.574127,422.785980 
	C338.345215,422.567596 330.096252,423.103485 321.169006,423.624481 
M493.567291,456.895386 
	C493.795746,448.127930 494.256256,439.357910 494.157928,430.594116 
	C494.106262,425.987915 490.881439,423.076263 486.478760,422.814606 
	C479.061188,422.373810 471.585480,422.344727 464.164215,422.725861 
	C459.011505,422.990417 455.977203,426.345490 455.805420,431.581055 
	C455.582184,438.384613 455.419891,445.212738 455.745056,452.005707 
	C456.110809,459.646484 459.765228,463.062286 467.454102,463.387756 
	C472.597290,463.605499 477.766235,463.599030 482.907654,463.355042 
	C487.190521,463.151764 491.122986,461.874573 493.567291,456.895386 
M529.278748,436.113861 
	C529.314514,441.276550 529.122314,446.453278 529.439575,451.598602 
	C529.913818,459.290649 533.917542,463.170441 541.519104,463.427917 
	C547.342407,463.625153 553.179810,463.377899 559.006348,463.518555 
	C561.831482,463.586731 562.772095,462.515137 562.788025,459.716522 
	C562.804443,456.843658 561.689392,455.874420 558.947937,455.931671 
	C554.120056,456.032562 549.287292,455.976105 544.457764,455.905853 
	C540.029236,455.841431 537.675293,453.701019 537.768494,449.089142 
	C537.849304,445.093140 537.983887,441.082031 537.737732,437.099670 
	C537.432312,432.158844 539.922546,429.986511 544.450134,429.760895 
	C548.604919,429.553864 552.774170,429.626282 556.937134,429.598358 
	C563.230286,429.556152 563.433716,429.287048 562.086121,422.318756 
	C561.197388,422.159393 560.237000,421.836609 559.277832,421.840027 
	C553.617920,421.860107 547.925720,421.597351 542.305786,422.106995 
	C532.891052,422.960815 530.321167,425.811066 529.278748,436.113861 
M372.366669,452.453400 
	C373.267944,454.780914 374.351624,457.057098 375.024597,459.448853 
	C375.878387,462.483276 377.527618,463.586548 380.766266,463.593689 
	C383.946899,463.600739 385.068512,462.115875 386.051941,459.520233 
	C390.294403,448.323151 394.699799,437.187897 399.008698,426.015778 
	C399.454407,424.860107 399.653534,423.609344 399.979584,422.354553 
	C392.222015,421.193848 392.219879,421.193054 389.783936,427.792847 
	C389.150208,429.509888 388.552246,431.240234 387.907013,432.952850 
	C385.642212,438.964325 383.363983,444.970734 381.090851,450.979095 
	C376.910614,442.875031 373.931000,434.815643 370.947845,426.757538 
	C368.860138,421.118103 367.504791,420.566315 360.915314,422.979980 
	C364.643677,432.565216 368.370758,442.147095 372.366669,452.453400 
M578.853455,463.427399 
	C579.574768,461.829132 580.909302,460.236176 580.923218,458.631744 
	C581.073669,441.340942 580.972412,424.048126 581.056458,406.756439 
	C581.071228,403.708771 580.820679,401.803009 576.890564,401.756226 
	C572.636353,401.705597 572.519958,403.879822 572.537109,407.069580 
	C572.628540,424.028625 572.721436,440.990509 572.480225,457.946655 
	C572.417908,462.327118 573.635559,464.215607 578.853455,463.427399 
M304.996979,429.589966 
	C308.456879,430.112396 309.202667,428.315643 309.175659,425.237091 
	C309.148407,422.134735 307.523315,421.716187 305.032532,421.779968 
	C301.211121,421.877808 297.383850,421.739014 293.561981,421.827362 
	C284.114624,422.045685 280.270721,425.564453 279.777679,435.140625 
	C279.384857,442.769897 279.594757,450.429474 279.496094,458.075073 
	C279.458557,460.983673 279.057251,463.594269 283.593750,463.618744 
	C287.923981,463.642059 287.954407,461.419403 287.928314,458.297485 
	C287.865784,450.818665 287.961029,443.337799 288.057953,435.858612 
	C288.113251,431.592010 290.278900,429.464569 294.634216,429.580475 
	C297.790710,429.664459 300.951355,429.592621 304.996979,429.589966 
M506.583252,458.719849 
	C507.321533,460.955872 507.534180,464.701324 508.887054,465.172394 
	C515.523193,467.483215 517.838440,465.408966 517.726196,458.489258 
	C517.687927,456.127014 517.583069,453.780609 514.451477,454.427673 
	C511.660217,455.004395 506.942139,451.688721 506.583252,458.719849 
z"/>
<path fill="#CCCCCD" opacity="1.000000" stroke="none" 
	d="
M808.500000,643.000000 
	C807.999878,429.306458 807.999695,215.612946 807.999756,1.459715 
	C808.333313,1.166686 808.943787,1.315942 808.955566,1.502813 
	C809.039001,2.830884 809.000000,4.166667 809.000000,5.500000 
	C809.000000,218.000000 809.000000,430.500000 808.500000,643.000000 
z"/>
<path fill="#D94849" opacity="1.000000" stroke="none" 
	d="
M367.000000,130.171875 
	C417.321869,130.172134 467.143707,130.170059 516.965576,130.174545 
	C523.487000,130.175125 523.497498,130.190704 523.497681,136.742950 
	C523.500183,209.559464 523.500183,282.375977 523.497437,355.192505 
	C523.497192,361.934631 523.486145,361.944214 516.648315,361.944885 
	C482.489502,361.948273 448.330719,361.947052 414.171906,361.943146 
	C412.672791,361.942993 411.069489,362.216797 409.710083,361.769379 
	C408.756683,361.455505 407.475952,360.091064 407.525848,359.267548 
	C407.595551,358.116669 408.529236,356.516479 409.531097,356.051025 
	C410.776062,355.472656 412.467865,355.828491 413.966675,355.828217 
	C446.292572,355.822418 478.619049,355.725891 510.943695,355.924988 
	C515.929993,355.955688 517.539307,354.595978 517.528137,349.473022 
	C517.377380,280.489258 517.387634,211.504974 517.514343,142.521103 
	C517.523071,137.788589 516.195068,136.217117 511.326141,136.226746 
	C442.175690,136.363342 373.024750,136.371689 303.874390,136.214386 
	C298.726562,136.202667 297.409668,137.834824 297.439545,142.790329 
	C297.633362,174.948441 297.539917,207.108261 297.535095,239.267532 
	C297.534882,240.766403 297.888184,242.446030 297.326416,243.707169 
	C296.874176,244.722351 295.325256,245.711044 294.188599,245.804169 
	C293.369202,245.871307 292.091034,244.606293 291.635315,243.643112 
	C291.180420,242.681671 291.474854,241.356293 291.474731,240.190460 
	C291.471130,205.531769 291.563293,170.872574 291.366455,136.214996 
	C291.339050,131.387711 292.696381,130.020554 297.520233,130.070709 
	C320.511353,130.309799 343.506378,130.174011 367.000000,130.171875 
z"/>
<path fill="#E5E5E6" opacity="1.000000" stroke="none" 
	d="
M375.799316,191.948608 
	C389.550934,191.927032 402.866608,191.860641 416.181366,191.941620 
	C433.468811,192.046768 444.629791,202.506042 445.717102,219.851669 
	C446.037781,224.967621 446.019043,230.216797 445.251404,235.267456 
	C443.187195,248.848801 433.709412,257.731049 419.996918,258.706543 
	C411.052032,259.342896 402.039520,259.032104 393.057190,259.135803 
	C391.107269,259.158295 389.156921,259.139099 386.719788,259.139099 
	C386.719788,269.453156 386.719788,279.209473 386.719788,289.349670 
	C382.168945,289.349670 378.114105,289.349670 373.606720,289.349670 
	C373.494476,287.937622 373.282379,286.506287 373.281433,285.074860 
	C373.262085,255.614807 373.234558,226.154617 373.356110,196.695068 
	C373.362610,195.117081 374.664215,193.544434 375.799316,191.948608 
M414.160156,246.820984 
	C416.936279,246.385193 419.886108,246.407715 422.458008,245.433044 
	C432.724243,241.542374 432.609375,232.571640 432.531799,223.766586 
	C432.439911,213.335419 429.315338,206.579666 421.993225,205.575592 
	C410.460266,203.994080 398.703186,204.047150 387.018127,203.406967 
	C387.018127,218.644409 387.018127,232.510956 387.018127,246.824432 
	C396.008301,246.824432 404.618073,246.824432 414.160156,246.820984 
z"/>
<path fill="#E2E3E4" opacity="1.000000" stroke="none" 
	d="
M226.809601,454.837036 
	C226.809677,438.386627 226.809677,422.411743 226.809677,406.526611 
	C237.406906,406.526611 247.676590,405.908325 257.824310,406.753845 
	C264.114594,407.277954 267.994263,412.299042 269.161652,418.575439 
	C269.823608,422.134460 270.045502,425.886383 269.746460,429.491760 
	C268.929779,439.336823 262.559967,445.194855 252.624710,445.487274 
	C246.994461,445.652985 241.355316,445.517181 235.004242,445.517181 
	C235.004242,449.673370 235.006042,453.270569 235.003845,456.867737 
	C234.999496,463.992340 234.998596,463.992340 226.809525,462.940582 
	C226.809525,460.480652 226.809525,457.896606 226.809601,454.837036 
M241.663147,413.219208 
	C239.568024,413.219208 237.472900,413.219208 234.960373,413.219208 
	C234.960373,421.030579 234.839355,428.012024 235.089050,434.980194 
	C235.127090,436.042297 236.852646,437.895782 237.847214,437.929626 
	C243.164352,438.110779 248.512558,438.037170 253.819702,437.643250 
	C257.933197,437.337921 260.623474,434.768433 261.189087,430.673096 
	C261.616394,427.579132 261.704041,424.358246 261.365112,421.257019 
	C260.846527,416.511871 257.937378,413.744110 253.099792,413.433167 
	C249.613083,413.209015 246.107407,413.279907 241.663147,413.219208 
z"/>
<path fill="#E2E2E3" opacity="1.000000" stroke="none" 
	d="
M423.086578,455.971924 
	C426.064789,455.916138 428.586121,456.054993 431.044708,455.725494 
	C432.406433,455.542999 434.610535,454.796783 434.811981,453.928253 
	C436.034210,448.657959 439.685730,449.579102 443.272827,449.960297 
	C444.476776,456.040375 442.403961,461.282562 436.813934,462.023956 
	C428.878998,463.076324 420.677002,462.799377 412.653168,462.213287 
	C408.538361,461.912720 405.965729,458.235596 405.790039,454.052032 
	C405.469360,446.417145 405.445282,438.753510 405.710541,431.116211 
	C405.877136,426.318726 409.059845,423.217926 413.643829,422.873871 
	C420.560913,422.354614 427.576874,422.212067 434.481903,422.766876 
	C440.119385,423.219818 443.153107,426.688171 443.702240,432.294464 
	C444.119354,436.553162 443.784973,440.885498 443.784973,445.791626 
	C433.873871,445.791626 424.138824,445.791626 414.542908,445.791626 
	C412.925507,453.740631 414.490570,455.570679 423.086578,455.971924 
M432.754944,430.488678 
	C428.476318,430.178558 424.179626,429.467651 419.923676,429.659729 
	C414.597046,429.900085 413.135468,432.525024 414.430054,438.128540 
	C421.449341,438.128540 428.468628,438.128540 436.726044,438.128540 
	C435.370331,435.152161 434.401978,433.026184 432.754944,430.488678 
z"/>
<path fill="#3159AF" opacity="1.000000" stroke="none" 
	d="
M327.000244,354.134888 
	C341.983704,354.139648 356.469360,354.285889 370.949524,354.067535 
	C375.666077,353.996429 378.173065,356.365936 380.699890,360.510315 
	C378.766876,360.702728 377.371277,360.961090 375.975372,360.962738 
	C354.499817,360.987946 333.024170,361.012146 311.548676,360.967163 
	C298.482330,360.939819 293.120544,355.498260 293.103210,342.323578 
	C293.075378,321.181000 293.089874,300.038361 293.105011,278.895752 
	C293.106171,277.289429 293.253876,275.683258 293.365326,273.434174 
	C297.641144,275.742828 299.965607,278.204193 299.929291,282.878601 
	C299.776733,302.521698 299.843323,322.166718 299.878082,341.810974 
	C299.894745,351.232788 302.773468,354.108276 312.016632,354.131683 
	C316.844482,354.143921 321.672394,354.134369 327.000244,354.134888 
z"/>
<path fill="#E2E2E4" opacity="1.000000" stroke="none" 
	d="
M321.512329,423.474030 
	C330.096252,423.103485 338.345215,422.567596 346.574127,422.785980 
	C351.246277,422.909973 354.347076,426.104980 354.534485,430.876007 
	C354.833862,438.499207 354.989197,446.167206 354.493561,453.769867 
	C354.105988,459.714691 350.528748,462.819061 344.188507,463.249084 
	C338.400024,463.641724 332.544922,463.645874 326.755005,463.269714 
	C319.877625,462.822906 316.407318,459.318176 316.068268,452.476196 
	C315.731567,445.681824 315.884186,438.855743 316.028290,432.047943 
	C316.106262,428.365692 317.474365,425.221588 321.512329,423.474030 
M342.685120,455.633606 
	C343.915802,454.250763 346.105042,452.935577 346.208252,451.473175 
	C346.615326,445.704468 347.450867,439.622986 346.105469,434.155029 
	C344.150391,426.209015 336.758118,430.387299 331.715546,429.677948 
	C328.104889,429.170044 324.646240,430.252075 324.188354,434.928345 
	C324.156067,435.257812 324.152069,435.591003 324.151825,435.922455 
	C324.148560,440.567352 324.152405,445.212219 324.145874,449.857117 
	C324.140442,453.702820 326.120544,455.780304 329.891449,455.888306 
	C333.862976,456.002045 337.842346,455.842102 342.685120,455.633606 
z"/>
<path fill="#E0E1E2" opacity="1.000000" stroke="none" 
	d="
M493.412354,457.246185 
	C491.122986,461.874573 487.190521,463.151764 482.907654,463.355042 
	C477.766235,463.599030 472.597290,463.605499 467.454102,463.387756 
	C459.765228,463.062286 456.110809,459.646484 455.745056,452.005707 
	C455.419891,445.212738 455.582184,438.384613 455.805420,431.581055 
	C455.977203,426.345490 459.011505,422.990417 464.164215,422.725861 
	C471.585480,422.344727 479.061188,422.373810 486.478760,422.814606 
	C490.881439,423.076263 494.106262,425.987915 494.157928,430.594116 
	C494.256256,439.357910 493.795746,448.127930 493.412354,457.246185 
M463.897797,447.274902 
	C464.024109,454.844574 465.079865,455.907471 472.569336,455.999359 
	C473.235229,456.007538 473.901306,456.001465 474.567291,456.001892 
	C486.056458,456.009186 486.315796,455.750977 486.311127,444.305878 
	C486.304962,429.227783 485.043732,428.086029 470.091156,429.621490 
	C469.925629,429.638489 469.760132,429.655243 469.594513,429.671265 
	C465.856995,430.032440 463.852539,431.950836 463.906586,435.845062 
	C463.955109,439.340698 463.905884,442.837708 463.897797,447.274902 
z"/>
<path fill="#DDDEDF" opacity="1.000000" stroke="none" 
	d="
M529.290161,435.686188 
	C530.321167,425.811066 532.891052,422.960815 542.305786,422.106995 
	C547.925720,421.597351 553.617920,421.860107 559.277832,421.840027 
	C560.237000,421.836609 561.197388,422.159393 562.086121,422.318756 
	C563.433716,429.287048 563.230286,429.556152 556.937134,429.598358 
	C552.774170,429.626282 548.604919,429.553864 544.450134,429.760895 
	C539.922546,429.986511 537.432312,432.158844 537.737732,437.099670 
	C537.983887,441.082031 537.849304,445.093140 537.768494,449.089142 
	C537.675293,453.701019 540.029236,455.841431 544.457764,455.905853 
	C549.287292,455.976105 554.120056,456.032562 558.947937,455.931671 
	C561.689392,455.874420 562.804443,456.843658 562.788025,459.716522 
	C562.772095,462.515137 561.831482,463.586731 559.006348,463.518555 
	C553.179810,463.377899 547.342407,463.625153 541.519104,463.427917 
	C533.917542,463.170441 529.913818,459.290649 529.439575,451.598602 
	C529.122314,446.453278 529.314514,441.276550 529.290161,435.686188 
z"/>
<path fill="#E0E1E2" opacity="1.000000" stroke="none" 
	d="
M372.232239,452.091187 
	C368.370758,442.147095 364.643677,432.565216 360.915314,422.979980 
	C367.504791,420.566315 368.860138,421.118103 370.947845,426.757538 
	C373.931000,434.815643 376.910614,442.875031 381.090851,450.979095 
	C383.363983,444.970734 385.642212,438.964325 387.907013,432.952850 
	C388.552246,431.240234 389.150208,429.509888 389.783936,427.792847 
	C392.219879,421.193054 392.222015,421.193848 399.979584,422.354553 
	C399.653534,423.609344 399.454407,424.860107 399.008698,426.015778 
	C394.699799,437.187897 390.294403,448.323151 386.051941,459.520233 
	C385.068512,462.115875 383.946899,463.600739 380.766266,463.593689 
	C377.527618,463.586548 375.878387,462.483276 375.024597,459.448853 
	C374.351624,457.057098 373.267944,454.780914 372.232239,452.091187 
z"/>
<path fill="#E2E2E3" opacity="1.000000" stroke="none" 
	d="
M578.461487,463.441467 
	C573.635559,464.215607 572.417908,462.327118 572.480225,457.946655 
	C572.721436,440.990509 572.628540,424.028625 572.537109,407.069580 
	C572.519958,403.879822 572.636353,401.705597 576.890564,401.756226 
	C580.820679,401.803009 581.071228,403.708771 581.056458,406.756439 
	C580.972412,424.048126 581.073669,441.340942 580.923218,458.631744 
	C580.909302,460.236176 579.574768,461.829132 578.461487,463.441467 
z"/>
<path fill="#DFE0E1" opacity="1.000000" stroke="none" 
	d="
M304.553589,429.590118 
	C300.951355,429.592621 297.790710,429.664459 294.634216,429.580475 
	C290.278900,429.464569 288.113251,431.592010 288.057953,435.858612 
	C287.961029,443.337799 287.865784,450.818665 287.928314,458.297485 
	C287.954407,461.419403 287.923981,463.642059 283.593750,463.618744 
	C279.057251,463.594269 279.458557,460.983673 279.496094,458.075073 
	C279.594757,450.429474 279.384857,442.769897 279.777679,435.140625 
	C280.270721,425.564453 284.114624,422.045685 293.561981,421.827362 
	C297.383850,421.739014 301.211121,421.877808 305.032532,421.779968 
	C307.523315,421.716187 309.148407,422.134735 309.175659,425.237091 
	C309.202667,428.315643 308.456879,430.112396 304.553589,429.590118 
z"/>
<path fill="#DDDEDF" opacity="1.000000" stroke="none" 
	d="
M506.584167,458.300659 
	C506.942139,451.688721 511.660217,455.004395 514.451477,454.427673 
	C517.583069,453.780609 517.687927,456.127014 517.726196,458.489258 
	C517.838440,465.408966 515.523193,467.483215 508.887054,465.172394 
	C507.534180,464.701324 507.321533,460.955872 506.584167,458.300659 
z"/>
<path fill="#283144" opacity="1.000000" stroke="none" 
	d="
M413.694000,246.822708 
	C404.618073,246.824432 396.008301,246.824432 387.018127,246.824432 
	C387.018127,232.510956 387.018127,218.644409 387.018127,203.406967 
	C398.703186,204.047150 410.460266,203.994080 421.993225,205.575592 
	C429.315338,206.579666 432.439911,213.335419 432.531799,223.766586 
	C432.609375,232.571640 432.724243,241.542374 422.458008,245.433044 
	C419.886108,246.407715 416.936279,246.385193 413.694000,246.822708 
z"/>
<path fill="#2E3648" opacity="1.000000" stroke="none" 
	d="
M242.136673,413.219208 
	C246.107407,413.279907 249.613083,413.209015 253.099792,413.433167 
	C257.937378,413.744110 260.846527,416.511871 261.365112,421.257019 
	C261.704041,424.358246 261.616394,427.579132 261.189087,430.673096 
	C260.623474,434.768433 257.933197,437.337921 253.819702,437.643250 
	C248.512558,438.037170 243.164352,438.110779 237.847214,437.929626 
	C236.852646,437.895782 235.127090,436.042297 235.089050,434.980194 
	C234.839355,428.012024 234.960373,421.030579 234.960373,413.219208 
	C237.472900,413.219208 239.568024,413.219208 242.136673,413.219208 
z"/>
<path fill="#3A4253" opacity="1.000000" stroke="none" 
	d="
M433.094299,430.694458 
	C434.401978,433.026184 435.370331,435.152161 436.726044,438.128540 
	C428.468628,438.128540 421.449341,438.128540 414.430054,438.128723 
	C413.135468,432.525024 414.597046,429.900085 419.923676,429.659729 
	C424.179626,429.467651 428.476318,430.178558 433.094299,430.694458 
z"/>
<path fill="#2D3547" opacity="1.000000" stroke="none" 
	d="
M342.251709,455.717682 
	C337.842346,455.842102 333.862976,456.002045 329.891449,455.888306 
	C326.120544,455.780304 324.140442,453.702820 324.145874,449.857117 
	C324.152405,445.212219 324.148560,440.567352 324.151825,435.922455 
	C324.152069,435.591003 324.156067,435.257812 324.188354,434.928345 
	C324.646240,430.252075 328.104889,429.170044 331.715546,429.677948 
	C336.758118,430.387299 344.150391,426.209015 346.105469,434.155029 
	C347.450867,439.622986 346.615326,445.704468 346.208252,451.473175 
	C346.105042,452.935577 343.915802,454.250763 342.251709,455.717682 
z"/>
<path fill="#2A3345" opacity="1.000000" stroke="none" 
	d="
M463.898804,446.804504 
	C463.905884,442.837708 463.955109,439.340698 463.906586,435.845062 
	C463.852539,431.950836 465.856995,430.032440 469.594513,429.671265 
	C469.760132,429.655243 469.925629,429.638489 470.091156,429.621490 
	C485.043732,428.086029 486.304962,429.227783 486.311127,444.305878 
	C486.315796,455.750977 486.056458,456.009186 474.567291,456.001892 
	C473.901306,456.001465 473.235229,456.007538 472.569336,455.999359 
	C465.079865,455.907471 464.024109,454.844574 463.898804,446.804504 
z"/>
</svg>