<svg xmlns="http://www.w3.org/2000/svg" width="32" height="32" viewBox="0 0 32 32">
  <path fill="white" d="M16 7.75c2.284 0 2.555.008 3.454.05.888.041 1.506.182 2.055.389a4.1 4.1 0 0 1 1.493.973 4.1 4.1 0 0 1 .973 1.493c.207.549.348 1.167.389 2.055.042.899.05 1.17.05 3.454s-.008 2.555-.05 3.454c-.041.888-.182 1.506-.389 2.055a4.1 4.1 0 0 1-.973 1.493 4.1 4.1 0 0 1-1.493.973c-.549.207-1.167.348-2.055.389-.899.042-1.17.05-3.454.05s-2.555-.008-3.454-.05c-.888-.041-1.506-.182-2.055-.389a4.1 4.1 0 0 1-1.493-.973 4.1 4.1 0 0 1-.973-1.493c-.207-.549-.348-1.167-.389-2.055-.042-.899-.05-1.17-.05-3.454s.008-2.555.05-3.454c.041-.888.182-1.506.389-2.055a4.1 4.1 0 0 1 .973-1.493 4.1 4.1 0 0 1 1.493-.973c.549-.207 1.167-.348 2.055-.389.899-.042 1.17-.05 3.454-.05zm0-2.25c-2.322 0-2.613.01-3.521.052-1.094.05-1.84.224-2.493.478a6.35 6.35 0 0 0-2.297 1.497 6.35 6.35 0 0 0-1.497 2.297c-.254.653-.428 1.399-.478 2.493C5.01 13.387 5 13.678 5 16s.01 2.613.052 3.521c.05 1.094.224 1.84.478 2.493a6.35 6.35 0 0 0 1.497 2.297 6.35 6.35 0 0 0 2.297 1.497c.653.254 1.399.428 2.493.478.908.042 1.199.052 3.521.052s2.613-.01 3.521-.052c1.094-.05 1.84-.224 2.493-.478a6.35 6.35 0 0 0 2.297-1.497 6.35 6.35 0 0 0 1.497-2.297c.254-.653.428-1.399.478-2.493.042-.908.052-1.199.052-3.521s-.01-2.613-.052-3.521c-.05-1.094-.224-1.84-.478-2.493a6.35 6.35 0 0 0-1.497-2.297 6.35 6.35 0 0 0-2.297-1.497c-.653-.254-1.399-.428-2.493-.478C18.613 5.01 18.322 5 16 5z"></path>
  <path fill="white" d="M16 11.5a4.5 4.5 0 1 0 0 9 4.5 4.5 0 0 0 0-9zm0-2.25a6.75 6.75 0 1 1 0 13.5 6.75 6.75 0 0 1 0-13.5zm6.875-2.125a1.625 1.625 0 1 0 0 3.25 1.625 1.625 0 0 0 0-3.25z"></path>
</svg>
