<svg xmlns="http://www.w3.org/2000/svg" width="32" height="32" viewBox="0 0 32 32">
  <path fill="white" d="M32 6.076a13.172 13.172 0 0 1-3.769 1.031 6.601 6.601 0 0 0 2.887-3.631 13.195 13.195 0 0 1-4.169 1.594A6.563 6.563 0 0 0 22.155 4c-3.626 0-6.563 2.938-6.563 6.563 0 .514.058 1.015.17 1.497C10.291 11.785 5.457 9.172 2.228 5.148a6.544 6.544 0 0 0-.889 3.3c0 2.278 1.159 4.29 2.919 5.465a6.537 6.537 0 0 1-2.975-.822v.083c0 3.18 2.262 5.834 5.265 6.437a6.588 6.588 0 0 1-2.965.113c.836 2.61 3.26 4.51 6.135 4.563A13.172 13.172 0 0 1 0 27.539a18.57 18.57 0 0 0 10.063 2.951c12.073 0 18.675-10.004 18.675-18.675 0-.285-.007-.568-.019-.85A13.348 13.348 0 0 0 32 6.076z"></path>
</svg>
